# xmcd
#
# Track frame offsets:
#	150
#	22600
#	49320
#	69677
#	88772
#	108630
#	130492
#	149935
#	168830
#	187900
#	205052
#	227465
#	247902
#	266782
#	287565
#
# Disc length: 4205 seconds
#
# Revision: 3
# Processed by: cddbd v1.5.2PL0 Copyright (c) Steve Scherf et al.
# Submitted via: audiograbber 1.83.01
#
DISCID=d9106b0f
DTITLE=Various Artist - Re:Orient Club
DYEAR=2000
DGENRE=Ethnic
TTITLE0=Mega Dhol Blasters (India - England) - Heer
TTITLE1=Rachid Taha (Algeria) - Ida
TTITLE2=Candan Erçetin (Turkey) - Sevdim, Sevilmedim
TTITLE3=Soni Atwal (India - England) - Kikera (V2 Mix)
TTITLE4=Faudel (Algeria) - Anti
TTITLE5=Cheb Kader (Algeria) - M'hainek Ya Galbi
TTITLE6=Ali Hassan Kuban (Egypt - Nubia) - Habibi
TTITLE7=Setona (Sudan) - Komssou
TTITLE8=Natacha Atlas (Middle East - England) - Mistaneek
TTITLE9=Bally Sagoo (India - England) - Choli Ke Peeche
TTITLE10=Taz (India - England) - Gwandiyaa
TTITLE11=Orchestre National De Barbès (Algeria - Morocco - France) - Lemouima
TTITLE12=Seçil (Turkey) - Rabbena
TTITLE13=Ihsan Almounzer (Egypt) - Habibi Ya Asmar
TTITLE14=T. J. Rehmi (England - India) - Who Killed Bhangra?
EXTD=YEAR: 2000
EXTT0=
EXTT1=
EXTT2=
EXTT3=
EXTT4=
EXTT5=
EXTT6=
EXTT7=
EXTT8=
EXTT9=
EXTT10=
EXTT11=
EXTT12=
EXTT13=
EXTT14=
PLAYORDER=
